<svg width="244" height="217" viewBox="0 0 244 217" fill="none" xmlns="http://www.w3.org/2000/svg">
<path d="M153.337 102C146.391 76.2686 127.018 56.3382 102.788 50.462C127.609 44.4527 147.126 24.8622 153.03 0C158.958 24.9659 178.613 44.6159 203.582 50.5364C179.494 56.5049 160.254 76.3761 153.337 102Z" fill="url(#paint0_linear_2041_64)"/>
<path d="M0 132.887C39.4435 142.453 70.9809 174.897 82.2877 216.785C93.5473 175.072 124.869 142.724 164.081 133.008C123.435 123.37 91.4382 91.3825 81.7877 50.7411C72.1773 91.2138 40.4058 123.105 0 132.887Z" fill="url(#paint1_linear_2041_64)"/>
<path d="M163.788 165.073C183.029 169.739 198.414 185.566 203.93 206C209.422 185.652 224.702 169.872 243.831 165.132C224.002 160.43 208.394 144.826 203.686 125C198.998 144.744 183.499 160.301 163.788 165.073Z" fill="url(#paint2_linear_2041_64)"/>
<defs>
<linearGradient id="paint0_linear_2041_64" x1="32.7564" y1="15.1873" x2="167.833" y2="245.683" gradientUnits="userSpaceOnUse">
<stop stop-color="#F59E0B"/>
<stop offset="1" stop-color="#FACC15"/>
</linearGradient>
<linearGradient id="paint1_linear_2041_64" x1="32.7564" y1="15.1873" x2="167.833" y2="245.683" gradientUnits="userSpaceOnUse">
<stop stop-color="#F59E0B"/>
<stop offset="1" stop-color="#FACC15"/>
</linearGradient>
<linearGradient id="paint2_linear_2041_64" x1="32.7564" y1="15.1873" x2="167.833" y2="245.683" gradientUnits="userSpaceOnUse">
<stop stop-color="#F59E0B"/>
<stop offset="1" stop-color="#FACC15"/>
</linearGradient>
</defs>
</svg>
